<?xml version="1.0" encoding="UTF-8"?>
<svg width="397px" height="77px" viewBox="0 0 397 77" version="1.1" xmlns="http://www.w3.org/2000/svg" xmlns:xlink="http://www.w3.org/1999/xlink">
    <!-- Generator: Sketch 53.2 (72643) - https://sketchapp.com -->
    <title>Group</title>
    <desc>Created with Sketch.</desc>
    <g id="Page-1" stroke="none" stroke-width="1" fill="none" fill-rule="evenodd">
        <g id="Group">
            <path d="M96.5,73.6 C96.5,75.1 95.2,76.4 93.7,76.4 L2.8,76.4 C1.3,76.4 0,75.2 0,73.6 L0,2.8 C0,1.2 1.3,0 2.8,0 L93.7,0 C95.2,0 96.5,1.2 96.5,2.8 L96.5,73.6 Z" id="SVGID_1_" fill="#00365E"></path>
            <path d="M72.8,38.1 C72.8,37.8 72.9,37.5 73,37.3 L89.8,15.8 L80.7,15.8 L64,37.3 L64,37.3 C63.8,37.5 63.8,37.8 63.8,38.1 C63.8,38.4 63.9,38.7 64,38.9 L64,38.9 L80.8,60.4 L89.9,60.4 L73.1,38.9 C72.9,38.6 72.8,38.4 72.8,38.1" id="SVGID_3_" fill="#FFFFFF" fill-rule="nonzero"></path>
            <rect id="SVGID_7_" fill="#FFFFFF" fill-rule="nonzero" x="51.5" y="15.8" width="7.8" height="44.6"></rect>
            <path d="M133.8,40.4 C131.3,38.3 127.8,36.7 123.1,35.5 L123.1,35.5 L123.1,35.5 C118.8,34.4 115.7,33.1 114.1,31.8 C113.3,31.1 112.6,30.4 112.2,29.5 C111.8,28.7 111.6,27.8 111.6,26.7 C111.6,25.6 111.8,24.7 112.3,23.8 C112.7,22.9 113.4,22.1 114.3,21.4 C115.2,20.7 116.3,20.1 117.6,19.8 C118.9,19.4 120.4,19.2 122,19.2 C123.7,19.2 125.2,19.4 126.5,19.9 C127.8,20.3 128.9,21 129.9,21.9 C130.9,22.8 131.6,23.8 132.1,24.9 C132.6,26 132.8,27.2 132.8,28.6 L132.8,29.1 L136.8,29.1 L137.1,28.6 L137.1,28.5 C137.1,28.4 137.1,28.3 137.1,28.2 C137.1,26.4 136.8,24.8 136.1,23.3 C135.4,21.8 134.4,20.4 133,19.2 C131.6,17.9 130,17 128.1,16.3 C126.3,15.7 124.2,15.4 122,15.4 C117.7,15.4 114.1,16.5 111.3,18.6 C109.9,19.7 108.8,20.9 108.1,22.3 C107.4,23.7 107,25.3 107,27 C107,28.7 107.3,30.2 107.9,31.5 C108.5,32.8 109.5,34 110.7,35 C113.2,36.9 116.8,38.5 121.5,39.7 C125.8,40.8 128.8,42.1 130.4,43.5 C131.2,44.2 131.8,45 132.2,45.9 C132.6,46.8 132.8,47.8 132.8,48.9 C132.8,50.1 132.6,51.1 132.1,52 C131.6,52.9 130.9,53.7 129.9,54.4 C127.9,55.8 125.3,56.5 122,56.5 C118.7,56.5 115.9,55.7 113.5,54.2 C112.3,53.4 111.5,52.5 110.9,51.3 C110.3,50.1 110,48.8 110,47.2 L110,46.7 L105.9,46.7 L105.7,47.3 L105.7,47.4 C105.7,47.5 105.7,47.7 105.7,47.8 C105.7,49.8 106.1,51.7 106.9,53.2 C107.7,54.8 108.9,56.1 110.5,57.2 C113.8,59.4 117.6,60.5 121.9,60.5 C126.3,60.5 130,59.5 132.8,57.4 C134.2,56.4 135.3,55.1 136.1,53.7 C136.8,52.3 137.2,50.7 137.2,48.9 C137.2,47.2 136.9,45.6 136.3,44.3 C136,42.7 135,41.4 133.8,40.4" id="SVGID_11_" fill="#A0A2A7"></path>
            <polygon id="SVGID_15_" fill="#A5A9AC" points="156.9 39.1 144.1 15.8 138.8 15.8 154.7 43.4 154.7 59.6 159.2 59.6 159.2 43.6 175.1 15.8 169.9 15.8"></polygon>
            <path d="M204.2,40.4 C201.7,38.3 198.2,36.7 193.5,35.5 L193.5,35.5 L193.5,35.5 C189.2,34.4 186.1,33.1 184.5,31.8 C183.7,31.1 183,30.4 182.6,29.5 C182.2,28.7 182,27.8 182,26.7 C182,25.6 182.2,24.7 182.7,23.8 C183.1,22.9 183.8,22.1 184.7,21.4 C185.6,20.7 186.7,20.1 188,19.8 C189.3,19.4 190.8,19.2 192.4,19.2 C194.1,19.2 195.6,19.4 196.9,19.9 C198.2,20.3 199.3,21 200.3,21.9 C201.3,22.8 202,23.8 202.5,24.9 C203,26 203.2,27.2 203.2,28.6 L203.2,29.1 L207.2,29.1 L207.5,28.6 L207.5,28.5 C207.5,28.4 207.5,28.3 207.5,28.2 C207.5,26.4 207.2,24.8 206.5,23.3 C205.8,21.8 204.8,20.4 203.4,19.2 C202,17.9 200.4,17 198.5,16.3 C196.7,15.7 194.6,15.4 192.4,15.4 C188.1,15.4 184.5,16.5 181.7,18.6 C180.3,19.7 179.2,20.9 178.5,22.3 C177.8,23.7 177.4,25.3 177.4,27 C177.4,28.7 177.7,30.2 178.3,31.5 C178.9,32.8 179.9,34 181.1,35 C183.6,36.9 187.2,38.5 191.9,39.7 C196.2,40.8 199.2,42.1 200.8,43.5 C201.6,44.2 202.2,45 202.6,45.9 C203,46.8 203.2,47.8 203.2,48.9 C203.2,50.1 203,51.1 202.5,52 C202,52.9 201.3,53.7 200.3,54.4 C198.3,55.8 195.7,56.5 192.4,56.5 C189.1,56.5 186.3,55.7 183.9,54.2 C182.7,53.4 181.9,52.5 181.3,51.3 C180.7,50.1 180.4,48.8 180.4,47.2 L180.4,46.7 L176.3,46.7 L176.1,47.3 L176.1,47.4 C176.1,47.5 176.1,47.7 176.1,47.8 C176.1,49.8 176.5,51.7 177.3,53.2 C178.1,54.8 179.3,56.1 180.9,57.2 C184.2,59.4 188,60.5 192.3,60.5 C196.7,60.5 200.4,59.5 203.2,57.4 C204.6,56.4 205.7,55.1 206.5,53.7 C207.2,52.3 207.6,50.7 207.6,48.9 C207.6,47.2 207.3,45.6 206.7,44.3 C206.4,42.7 205.5,41.4 204.2,40.4" id="SVGID_17_" fill="#A0A2A7"></path>
            <polygon id="SVGID_21_" fill="#A0A2A7" points="210.1 19.8 210.6 19.8 224.8 19.8 224.8 59.6 229.3 59.6 229.3 19.8 244 19.8 244 15.8 210.1 15.8"></polygon>
            <polygon id="SVGID_25_" fill="#A0A2A7" points="253.6 38.8 274.2 38.8 274.2 34.9 253.6 34.9 253.6 19.8 277 19.8 277 15.8 249.2 15.8 249.2 59.6 277.2 59.6 277.2 55.6 253.6 55.6"></polygon>
            <polygon id="SVGID_29_" fill="#A0A2A7" points="303.8 52.9 288.3 15.8 282.9 15.8 282.9 59.6 287.3 59.6 287.3 40.2 287.1 23.6 302.3 59.6 305.4 59.6 320.6 23.4 320.4 40.2 320.4 59.6 324.8 59.6 324.8 15.8 319.4 15.8"></polygon>
            <polygon id="SVGID_33_" fill="#A0A2A7" points="338.6 38.8 359.1 38.8 359.1 34.9 338.6 34.9 338.6 19.8 362 19.8 362 15.8 334.2 15.8 334.2 59.6 362.1 59.6 362.1 55.6 338.6 55.6"></polygon>
            <path d="M395.9,44 C395.3,42.6 394.3,41.4 393.1,40.3 C390.6,38.2 387.1,36.6 382.4,35.4 L382.4,35.4 L382.4,35.4 C378.1,34.3 375,33 373.4,31.7 C372.6,31 371.9,30.3 371.5,29.4 C371.1,28.6 370.9,27.7 370.9,26.6 C370.9,25.5 371.1,24.6 371.6,23.7 C372,22.8 372.7,22 373.6,21.3 C374.5,20.6 375.6,20 376.9,19.7 C378.2,19.3 379.7,19.1 381.3,19.1 C383,19.1 384.5,19.3 385.8,19.8 C387.1,20.2 388.2,20.9 389.2,21.8 C390.2,22.7 390.9,23.7 391.4,24.8 C391.9,25.9 392.1,27.1 392.1,28.5 L392.1,29 L396.1,29 L396.4,28.5 L396.4,28.4 C396.4,28.3 396.4,28.2 396.4,28.1 C396.4,26.3 396.1,24.7 395.4,23.2 C394.7,21.7 393.7,20.3 392.3,19.1 C390.9,17.8 389.3,16.9 387.4,16.2 C385.6,15.6 383.5,15.3 381.3,15.3 C377,15.3 373.4,16.4 370.6,18.5 C369.2,19.6 368.1,20.8 367.4,22.2 C366.7,23.6 366.3,25.2 366.3,26.9 C366.3,28.6 366.6,30.1 367.2,31.4 C367.8,32.7 368.8,33.9 370,34.9 C372.5,36.8 376.1,38.4 380.8,39.6 C385.1,40.7 388.1,42 389.7,43.4 C390.5,44.1 391.1,44.9 391.5,45.8 C391.9,46.7 392.1,47.7 392.1,48.8 C392.1,50 391.9,51 391.4,51.9 C390.9,52.8 390.2,53.6 389.2,54.3 C387.2,55.7 384.6,56.4 381.3,56.4 C378,56.4 375.2,55.6 372.8,54.1 C371.6,53.3 370.8,52.4 370.2,51.2 C369.6,50 369.3,48.7 369.3,47.1 L369.3,46.6 L365.2,46.6 L365,47.2 L365,47.3 C365,47.4 365,47.6 365,47.7 C365,49.7 365.4,51.6 366.2,53.1 C367,54.7 368.2,56 369.8,57.1 C373.1,59.3 376.9,60.4 381.2,60.4 C385.6,60.4 389.3,59.4 392.1,57.3 C393.5,56.3 394.6,55 395.4,53.6 C396.1,52.2 396.5,50.6 396.5,48.8 C396.9,47 396.5,45.4 395.9,44" id="SVGID_37_" fill="#A0A2A7"></path>
            <path d="M111.1,73.1 C111.1,72.7 111,72.4 110.7,72.2 C110.4,72 109.9,71.7 109.2,71.5 C108.2,71.2 107.4,70.9 106.8,70.4 C106.2,70 106,69.4 106,68.6 C106,67.8 106.3,67.2 106.9,66.7 C107.5,66.2 108.3,66 109.3,66 C110.3,66 111.1,66.3 111.8,66.8 C112.4,67.4 112.7,68 112.7,68.8 L112.7,68.8 L111.2,68.8 C111.2,68.3 111,67.9 110.7,67.6 C110.4,67.3 109.9,67.2 109.3,67.2 C108.7,67.2 108.3,67.3 108,67.6 C107.7,67.8 107.5,68.2 107.5,68.6 C107.5,69 107.7,69.2 108,69.5 C108.3,69.7 108.9,70 109.6,70.2 C110.6,70.5 111.4,70.8 111.9,71.3 C112.4,71.8 112.7,72.4 112.7,73.1 C112.7,73.9 112.4,74.5 111.8,75 C111.2,75.5 110.4,75.7 109.4,75.7 C108.4,75.7 107.6,75.4 106.8,74.9 C106.1,74.4 105.7,73.7 105.7,72.8 L105.7,72.8 L107.2,72.8 C107.2,73.4 107.4,73.8 107.8,74.1 C108.2,74.4 108.7,74.5 109.3,74.5 C109.9,74.5 110.3,74.4 110.6,74.2 C111,73.8 111.1,73.5 111.1,73.1" id="SVGID_41_" fill="#A0A2A7"></path>
            <path d="M127.4,66.3 L127.4,72.6 C127.4,73.6 127.1,74.5 126.4,75 C125.7,75.6 124.8,75.8 123.8,75.8 C122.7,75.8 121.9,75.5 121.2,75 C120.5,74.4 120.2,73.6 120.2,72.6 L120.2,66.3 L121.8,66.3 L121.8,72.6 C121.8,73.3 122,73.8 122.4,74.1 C122.8,74.4 123.3,74.6 123.9,74.6 C124.5,74.6 125.1,74.4 125.4,74.1 C125.8,73.8 126,73.3 126,72.6 L126,66.3 L127.4,66.3 Z" id="SVGID_45_" fill="#A0A2A7"></path>
            <path d="M137,72.1 L137,75.6 L135.4,75.6 L135.4,66.3 L139.1,66.3 C140.1,66.3 141,66.6 141.5,67.1 C142.1,67.6 142.4,68.3 142.4,69.2 C142.4,70.1 142.1,70.8 141.5,71.3 C140.9,71.8 140.1,72.1 139.1,72.1 L137,72.1 L137,72.1 Z M137,70.9 L139.1,70.9 C139.7,70.9 140.1,70.7 140.4,70.4 C140.7,70.1 140.8,69.7 140.8,69.2 C140.8,68.7 140.7,68.3 140.4,68 C140.1,67.7 139.7,67.5 139.1,67.5 L137,67.5 L137,70.9 Z" id="SVGID_49_" fill="#A0A2A7"></path>
            <path d="M151.6,72.1 L151.6,75.6 L150,75.6 L150,66.3 L153.7,66.3 C154.7,66.3 155.6,66.6 156.1,67.1 C156.7,67.6 157,68.3 157,69.2 C157,70.1 156.7,70.8 156.1,71.3 C155.5,71.8 154.7,72.1 153.7,72.1 L151.6,72.1 L151.6,72.1 Z M151.6,70.9 L153.7,70.9 C154.3,70.9 154.7,70.7 155,70.4 C155.3,70.1 155.4,69.7 155.4,69.2 C155.4,68.7 155.3,68.3 155,68 C154.7,67.7 154.3,67.5 153.7,67.5 L151.6,67.5 L151.6,70.9 Z" id="SVGID_53_" fill="#A0A2A7"></path>
            <polygon id="SVGID_57_" fill="#A0A2A7" points="166.1 74.4 170.4 74.4 170.4 75.6 164.5 75.6 164.5 66.3 166.1 66.3"></polygon>
            <polygon id="SVGID_61_" fill="#A0A2A7" points="178.9 70.8 181.1 66.3 182.9 66.3 179.6 72.4 179.6 75.6 178.1 75.6 178.1 72.3 174.9 66.3 176.6 66.3"></polygon>
            <path d="M206.4,72.4 L206.4,72.4 C206.4,73.4 206.1,74.1 205.5,74.7 C204.9,75.3 204,75.6 202.9,75.6 C201.8,75.6 200.9,75.2 200.2,74.5 C199.5,73.8 199.2,72.8 199.2,71.7 L199.2,70 C199.2,68.9 199.5,67.9 200.2,67.2 C200.9,66.5 201.8,66.1 202.9,66.1 C204,66.1 204.9,66.4 205.5,67 C206.1,67.6 206.5,68.4 206.4,69.3 L206.4,69.3 L204.9,69.3 C204.9,68.7 204.7,68.2 204.4,67.8 C204.1,67.5 203.5,67.3 202.9,67.3 C202.3,67.3 201.7,67.6 201.4,68.1 C201,68.6 200.8,69.2 200.8,70 L200.8,71.8 C200.8,72.6 201,73.2 201.4,73.7 C201.8,74.2 202.3,74.5 203,74.5 C203.7,74.5 204.1,74.3 204.5,74 C204.8,73.7 205,73.2 205,72.5 L206.4,72.5 L206.4,72.4 Z" id="SVGID_65_" fill="#A0A2A7"></path>
            <polygon id="SVGID_69_" fill="#A0A2A7" points="221.2 75.6 219.7 75.6 219.7 71.7 215.5 71.7 215.5 75.6 214 75.6 214 66.3 215.5 66.3 215.5 70.4 219.7 70.4 219.7 66.3 221.2 66.3"></polygon>
            <path d="M234.4,73.5 L230.7,73.5 L230,75.7 L228.4,75.7 L231.8,66.4 L233.3,66.4 L236.7,75.7 L235.1,75.7 L234.4,73.5 Z M231.2,72.2 L234,72.2 L232.6,68.2 L232.6,68.2 L231.2,72.2 Z" id="SVGID_73_" fill="#A0A2A7"></path>
            <rect id="SVGID_77_" fill="#A0A2A7" x="244" y="66.3" width="1.6" height="9.3"></rect>
            <polygon id="SVGID_81_" fill="#A0A2A7" points="260.9 75.6 259.3 75.6 255.2 68.8 255.2 68.8 255.2 75.6 253.6 75.6 253.6 66.3 255.2 66.3 259.3 73.1 259.3 73.1 259.3 66.3 260.9 66.3"></polygon>
            <path d="M283.4,73.1 C283.4,72.7 283.3,72.4 283,72.2 C282.7,72 282.2,71.7 281.5,71.5 C280.5,71.2 279.7,70.9 279.1,70.4 C278.5,70 278.3,69.4 278.3,68.6 C278.3,67.8 278.6,67.2 279.2,66.7 C279.8,66.2 280.6,66 281.6,66 C282.6,66 283.4,66.3 284.1,66.8 C284.7,67.4 285,68 285,68.8 L285,68.8 L283.5,68.8 C283.5,68.3 283.3,67.9 283,67.6 C282.7,67.3 282.2,67.2 281.6,67.2 C281,67.2 280.6,67.3 280.3,67.6 C280,67.8 279.8,68.2 279.8,68.6 C279.8,69 280,69.2 280.3,69.5 C280.6,69.7 281.2,70 281.9,70.2 C282.9,70.5 283.7,70.8 284.2,71.3 C284.7,71.8 285,72.4 285,73.1 C285,73.9 284.7,74.5 284.1,75 C283.5,75.5 282.7,75.7 281.7,75.7 C280.7,75.7 279.9,75.4 279.1,74.9 C278.4,74.4 278,73.7 278,72.8 L278,72.8 L279.5,72.8 C279.5,73.4 279.7,73.8 280.1,74.1 C280.5,74.4 281,74.5 281.6,74.5 C282.2,74.5 282.6,74.4 282.9,74.2 C283.2,73.8 283.4,73.5 283.4,73.1" id="SVGID_85_" fill="#A0A2A7"></path>
            <path d="M300,71.7 C300,72.8 299.6,73.8 298.9,74.5 C298.2,75.2 297.3,75.6 296.2,75.6 C295.1,75.6 294.2,75.2 293.5,74.5 C292.8,73.8 292.5,72.8 292.5,71.7 L292.5,70 C292.5,68.9 292.8,67.9 293.5,67.2 C294.2,66.4 295.1,66.1 296.2,66.1 C297.3,66.1 298.2,66.5 298.9,67.2 C299.6,68 300,68.9 300,70 L300,71.7 Z M298.4,70 C298.4,69.2 298.2,68.6 297.8,68.1 C297.4,67.6 296.8,67.4 296.1,67.4 C295.4,67.4 294.9,67.7 294.5,68.1 C294.1,68.6 293.9,69.2 293.9,70 L293.9,71.7 C293.9,72.5 294.1,73.1 294.5,73.6 C294.9,74.1 295.4,74.4 296.1,74.4 C296.8,74.4 297.4,74.2 297.8,73.7 C298.2,73.2 298.4,72.6 298.4,71.8 L298.4,70 Z" id="SVGID_89_" fill="#A0A2A7"></path>
            <polygon id="SVGID_91_" fill="#A0A2A7" points="309.3 74.4 313.7 74.4 313.7 75.6 307.7 75.6 307.7 66.3 309.3 66.3"></polygon>
            <path d="M327.9,66.3 L327.9,72.6 C327.9,73.6 327.6,74.5 326.9,75 C326.2,75.6 325.3,75.8 324.3,75.8 C323.2,75.8 322.4,75.5 321.7,75 C321,74.4 320.7,73.6 320.7,72.6 L320.7,66.3 L322.3,66.3 L322.3,72.6 C322.3,73.3 322.5,73.8 322.9,74.1 C323.3,74.4 323.8,74.6 324.4,74.6 C325,74.6 325.6,74.4 325.9,74.1 C326.3,73.8 326.5,73.3 326.5,72.6 L326.5,66.3 L327.9,66.3 Z" id="SVGID_93_" fill="#A0A2A7"></path>
            <polygon id="SVGID_95_" fill="#A0A2A7" points="342.2 67.6 339.4 67.6 339.4 75.6 337.8 75.6 337.8 67.6 334.9 67.6 334.9 66.3 342.2 66.3"></polygon>
            <rect id="SVGID_97_" fill="#A0A2A7" x="349.7" y="66.3" width="1.6" height="9.3"></rect>
            <path d="M366.5,71.7 C366.5,72.8 366.1,73.8 365.4,74.5 C364.7,75.2 363.8,75.6 362.7,75.6 C361.6,75.6 360.7,75.2 360,74.5 C359.3,73.8 359,72.8 359,71.7 L359,70 C359,68.9 359.3,67.9 360,67.2 C360.7,66.4 361.6,66.1 362.7,66.1 C363.8,66.1 364.7,66.5 365.4,67.2 C366.1,68 366.5,68.9 366.5,70 L366.5,71.7 Z M365,70 C365,69.2 364.8,68.6 364.4,68.1 C364,67.6 363.4,67.4 362.7,67.4 C362,67.4 361.5,67.7 361.1,68.1 C360.7,68.6 360.5,69.2 360.5,70 L360.5,71.7 C360.5,72.5 360.7,73.1 361.1,73.6 C361.5,74.1 362,74.4 362.7,74.4 C363.4,74.4 364,74.2 364.4,73.7 C364.8,73.2 365,72.6 365,71.8 L365,70 Z" id="SVGID_99_" fill="#A0A2A7"></path>
            <polygon id="SVGID_101_" fill="#A0A2A7" points="381.6 75.6 380 75.6 375.9 68.8 375.9 68.8 375.9 75.6 374.3 75.6 374.3 66.3 375.9 66.3 380 73.1 380 73.1 380 66.3 381.6 66.3"></polygon>
            <path d="M394.8,73.1 C394.8,72.7 394.7,72.4 394.4,72.2 C394.1,72 393.6,71.7 392.9,71.5 C391.9,71.2 391.1,70.9 390.5,70.4 C389.9,70 389.7,69.4 389.7,68.6 C389.7,67.8 390,67.2 390.6,66.7 C391.2,66.2 392,66 393,66 C394,66 394.8,66.3 395.5,66.8 C396.1,67.4 396.4,68 396.4,68.8 L396.4,68.8 L394.9,68.8 C394.9,68.3 394.7,67.9 394.4,67.6 C394.1,67.3 393.6,67.2 393,67.2 C392.4,67.2 392,67.3 391.7,67.6 C391.4,67.8 391.2,68.2 391.2,68.6 C391.2,69 391.4,69.2 391.7,69.5 C392,69.7 392.6,70 393.3,70.2 C394.3,70.5 395.1,70.8 395.6,71.3 C396.1,71.8 396.4,72.4 396.4,73.1 C396.4,73.9 396.1,74.5 395.5,75 C394.9,75.5 394.1,75.7 393.1,75.7 C392.1,75.7 391.3,75.4 390.5,74.9 C389.8,74.4 389.4,73.7 389.4,72.8 L389.4,72.8 L390.9,72.8 C390.9,73.4 391.1,73.8 391.5,74.1 C391.9,74.4 392.4,74.5 393,74.5 C393.6,74.5 394,74.4 394.3,74.2 C394.6,73.8 394.8,73.5 394.8,73.1" id="SVGID_103_" fill="#A0A2A7"></path>
            <path d="M45.5,41.9 C44.3,40 42.6,38.5 40.8,37.4 C43.1,35.1 44.6,31.9 44.6,28.4 C44.6,21.3 38.8,15.6 31.7,15.6 L31.7,15.6 L27.9,15.6 L9.3,15.6 L9.3,57.1 L9.3,57.1 L9.3,57.1 C9.3,58.9 10.8,60.4 12.6,60.4 L12.6,60.4 L12.6,60.4 L34.2,60.4 L34.2,60.4 C41.3,60.4 47.1,54.7 47.1,47.6 C47.2,45.5 46.5,43.5 45.5,41.9 M34.2,54.1 L34.2,54.1 L15.6,54.1 L15.6,21.8 L27.9,21.8 L27.9,21.8 L31.7,21.8 L31.7,21.8 C35.3,21.8 38.3,24.7 38.3,28.3 C38.3,31.9 35.4,34.8 31.7,34.8 L20,34.8 L20,41.1 L31.6,41.1 C34.9,41.1 40.7,42.3 40.7,47.6 C40.8,51.2 37.9,54.1 34.2,54.1" id="SVGID_105_" fill="#FFFFFF" fill-rule="nonzero"></path>
        </g>
    </g>
</svg>