<?xml version="1.0" encoding="utf-8"?>
<!-- Generator: Adobe Illustrator 23.0.2, SVG Export Plug-In . SVG Version: 6.00 Build 0)  -->
<svg version="1.1" id="Calque_1" xmlns="http://www.w3.org/2000/svg" xmlns:xlink="http://www.w3.org/1999/xlink" x="0px" y="0px"
	 viewBox="0 0 113.24 16.73" style="enable-background:new 0 0 113.24 16.73;" xml:space="preserve">
<style type="text/css">
	.st0{fill:#FFFFFF;}
</style>
<g>
	<g>
		<path class="st0" d="M2.98,16.73H0c0-4.58,3.73-8.31,8.31-8.31v2.98C5.37,11.41,2.98,13.8,2.98,16.73z"/>
	</g>
	<g>
		<path class="st0" d="M2.98,8.43H0c0-4.58,3.73-8.31,8.31-8.31V3.1C5.37,3.1,2.98,5.49,2.98,8.43z"/>
	</g>
	<g>
		<path class="st0" d="M15.37,6.54h0.71V4.3h3.02v1.12h-1.77v1.12h1.42v1.12h-1.42v4.91h-1.24V7.67h-0.71V6.54z"/>
		<path class="st0" d="M22.47,6.43c1.76,0,3.14,1.37,3.14,3.13s-1.37,3.14-3.14,3.14s-3.14-1.37-3.14-3.14
			C19.34,7.8,20.71,6.43,22.47,6.43z M22.47,11.57c1.08,0,1.83-0.78,1.83-2.01s-0.76-2.01-1.83-2.01c-1.08,0-1.83,0.78-1.83,2.01
			C20.64,10.79,21.4,11.57,22.47,11.57z"/>
		<path class="st0" d="M26.67,4.3h1.24v7.16h1.36v1.12h-2.6V4.3z"/>
		<path class="st0" d="M30.11,4.3h1.24v7.16h1.36v1.12h-2.6V4.3z"/>
		<path class="st0" d="M36.32,6.43c1.76,0,3.14,1.37,3.14,3.13s-1.37,3.14-3.14,3.14c-1.76,0-3.14-1.37-3.14-3.14
			C33.18,7.8,34.56,6.43,36.32,6.43z M36.32,11.57c1.08,0,1.83-0.78,1.83-2.01s-0.76-2.01-1.83-2.01c-1.08,0-1.83,0.78-1.83,2.01
			S35.24,11.57,36.32,11.57z"/>
		<path class="st0" d="M41.35,6.54l1.01,4.91h0.18l1.01-4.91h1.77l1.01,4.91h0.18l1.01-4.91h1.3l-1.3,6.03h-2.13l-0.89-4.61h-0.12
			l-0.89,4.61h-2.13l-1.3-6.03H41.35z"/>
		<path class="st0" d="M52.59,6.54h0.71v-1.3h1.24v1.3h1.83v1.12h-1.83v3.79h1.89v1.12H53.3V7.67h-0.71V6.54z"/>
		<path class="st0" d="M57.5,4.3h1.24v3.08h0.06c0.11-0.18,0.26-0.33,0.44-0.47c0.32-0.24,0.76-0.47,1.45-0.47
			c1.48,0,2.37,0.88,2.37,2.54v3.61h-1.24V9.09c0-1.08-0.47-1.54-1.42-1.54c-0.95,0-1.66,0.71-1.66,1.77v3.25H57.5L57.5,4.3
			L57.5,4.3z"/>
		<path class="st0" d="M67.15,6.43c1.72,0,3.08,1.37,3.08,3.13v0.41h-4.91c0.19,1.01,0.95,1.6,1.83,1.6c0.62,0,1.05-0.19,1.33-0.41
			c0.15-0.12,0.28-0.26,0.39-0.41h1.3c-0.15,0.37-0.35,0.7-0.63,0.98c-0.47,0.47-1.2,0.97-2.39,0.97c-1.72,0-3.08-1.37-3.08-3.14
			C64.07,7.8,65.43,6.43,67.15,6.43z M68.92,8.97c-0.13-0.71-0.7-1.42-1.77-1.42c-0.83,0-1.59,0.52-1.77,1.42H68.92z"/>
		<path class="st0" d="M74.6,6.54h1.24v0.83h0.06c0.11-0.18,0.24-0.33,0.4-0.47c0.28-0.24,0.71-0.47,1.37-0.47
			c0.77,0,1.25,0.28,1.55,0.57c0.18,0.17,0.31,0.35,0.4,0.56h0.06c0.11-0.2,0.26-0.39,0.46-0.56c0.32-0.28,0.84-0.57,1.61-0.57
			c1.37,0,2.25,0.88,2.25,2.54v3.61h-1.24V9.03c0-1.01-0.46-1.48-1.3-1.48c-0.82,0-1.54,0.71-1.54,1.72v3.31h-1.24V9.03
			c0-1.01-0.46-1.48-1.3-1.48c-0.82,0-1.54,0.71-1.54,1.72v3.31H74.6L74.6,6.54L74.6,6.54z"/>
		<path class="st0" d="M87.85,6.43c0.62,0,1.09,0.22,1.41,0.45c0.19,0.13,0.35,0.28,0.49,0.44h0.06V6.54h1.24v6.03h-1.24v-0.83
			h-0.06c-0.13,0.18-0.3,0.33-0.49,0.47c-0.32,0.24-0.79,0.47-1.41,0.47c-1.6,0-2.84-1.24-2.84-3.14S86.26,6.43,87.85,6.43z
			 M88.09,11.57c1.01,0,1.72-0.7,1.72-2.01s-0.71-2.01-1.72-2.01c-1.08,0-1.77,0.7-1.77,2.01S87.01,11.57,88.09,11.57z"/>
		<path class="st0" d="M92.47,6.54h1.24v0.89h0.06c0.1-0.18,0.22-0.33,0.38-0.47c0.27-0.24,0.67-0.47,1.28-0.47h0.71v1.18h-0.77
			c-0.95,0-1.66,0.65-1.66,1.66v3.25h-1.24V6.54z"/>
		<path class="st0" d="M97.08,4.3h1.24v4.61h0.89l1.83-2.37h1.42l-2.19,2.78l2.37,3.25h-1.54l-1.83-2.54h-0.95v2.54h-1.24V4.3z"/>
		<path class="st0" d="M105.72,6.43c1.72,0,3.08,1.37,3.08,3.13v0.41h-4.91c0.19,1.01,0.95,1.6,1.83,1.6c0.62,0,1.05-0.19,1.33-0.41
			c0.15-0.12,0.28-0.26,0.39-0.41h1.3c-0.15,0.37-0.35,0.7-0.63,0.98c-0.47,0.47-1.2,0.97-2.39,0.97c-1.72,0-3.08-1.37-3.08-3.14
			C102.65,7.8,104.01,6.43,105.72,6.43z M107.5,8.97c-0.13-0.71-0.7-1.42-1.77-1.42c-0.83,0-1.59,0.52-1.77,1.42H107.5z"/>
		<path class="st0" d="M109.39,6.54h0.71v-1.3h1.24v1.3h1.83v1.12h-1.83v3.79h1.89v1.12h-3.14V7.67h-0.71V6.54z"/>
	</g>
</g>
</svg>
